<?xml version="1.0" encoding="UTF-8"?>
<svg width="1142px" height="1070px" viewBox="0 0 1142 1070" version="1.1" xmlns="http://www.w3.org/2000/svg" xmlns:xlink="http://www.w3.org/1999/xlink">
    <!-- Generator: Sketch 53.2 (72643) - https://sketchapp.com -->
    <title>Group</title>
    <desc>Created with Sketch.</desc>
    <g id="Page-1" stroke="none" stroke-width="1" fill="none" fill-rule="evenodd">
        <g id="Logo-Copy-182" transform="translate(0.000000, -1.000000)">
            <g id="Group">
                <g id=".br" transform="translate(832.686667, 982.800000) scale(1, -1) translate(-832.686667, -982.800000) translate(683.186667, 894.800000)" fill="#F8E71C">
                    <path d="M248.695463,105.174411 C256.768118,123.484931 278.287732,135.574203 298.057399,130.760882 C298.02006,119.865612 298.057399,108.96288 298.044953,98.0725853 C285.865026,100.448152 271.594124,100.336214 261.863624,91.5503485 C252.9496,83.8117221 250.935793,71.3443497 250.525066,60.1754546 C250.437942,41.1460453 250.512619,22.0967361 250.490216,3.0598643 C238.554236,3.04991429 226.623234,3.07478933 214.70219,3.04991429 C214.577727,44.822577 214.677297,86.6051896 214.652405,128.387802 L248.832372,128.387802 C248.780098,120.649176 248.964302,112.908062 248.695463,105.174411" id="path62"></path>
                    <path d="M155.331455,43.1131639 C151.709588,35.1606121 144.58285,28.2179871 135.708654,26.7404094 C126.045364,24.5091179 115.251952,28.0463493 108.946668,35.7675632 C102.35512,43.9489654 100.032644,54.7770724 100.04509,65.0728534 C99.8932458,74.6820832 101.526197,84.7067262 106.818355,92.9030535 C110.231124,98.3631258 115.647744,102.512283 121.828565,104.353037 C129.821565,106.611691 139.044256,105.601764 145.797606,100.509842 C153.588976,94.8258944 157.517021,85.3236273 158.965768,76.0526982 C160.538977,65.0355408 159.881814,53.3890449 155.331455,43.1131639 M194.890703,79.4307292 C192.86196,95.400508 185.727754,111.397649 172.781136,121.439705 C160.795371,130.956897 144.396156,133.941902 129.587575,130.613621 C118.480517,128.59128 107.731911,122.937183 101.267315,113.472228 C101.364396,134.257815 101.205083,155.043403 101.35195,175.831478 C89.343781,176.000628 77.3281448,175.86879 65.3199763,175.891178 C65.3448688,118.297987 65.30753,60.6848955 65.3448688,3.08921686 C76.6610243,3.03200425 87.9746905,3.07429183 99.2883567,3.05190429 C99.2883567,8.41496394 99.2759105,13.7481735 99.3281848,19.0888456 C103.243784,12.4571587 109.205551,6.95231131 116.536408,4.31804407 C126.533258,0.673850011 137.471047,-0.758952568 148.062829,0.432562076 C163.889515,2.054415 178.294837,12.044233 186.061314,25.8125702 C195.545377,41.8743867 196.869661,61.2694591 194.890703,79.4307292" id="path66"></path>
                    <path d="M0.0519461836,40.6547632 L39.5464738,40.6547632 L39.5464738,3.06110806 C26.3882693,3.05115804 13.2450003,3.07603308 0.101731293,3.05115804 C-0.0102852038,15.5906681 0.0768387385,28.1202282 0.0519461836,40.6547632" id="path70"></path>
                </g>
                <g id="Face" transform="translate(571.233333, 517.474779) scale(1, -1) translate(-571.233333, -517.474779) translate(0.733333, 0.974779)" fill="#FFFFFF">
                    <path d="M596.667319,192.373632 C579.934543,181.515675 560.598006,175.388952 541.074776,171.913908 C512.652456,166.784674 483.570484,167.150337 454.856922,169.028403 C438.360626,170.451255 421.555662,171.244769 405.741422,176.568029 C385.22,183.040516 365.452822,195.239238 354.689281,214.393022 C349.227855,223.054513 346.410018,232.997068 344.177155,242.902311 C443.944026,245.014202 543.783086,244.255513 643.522575,241.171008 C631.526852,221.907773 615.931667,204.582304 596.667319,192.373632 M686.213306,276.617947 C679.604333,280.627804 671.519231,279.680065 664.128632,280.058165 C568.364484,283.356596 472.510722,284.732186 376.699278,283.162571 C358.261363,282.677507 339.801044,282.76457 321.363129,281.941206 C311.122332,281.20988 303.67199,271.463837 303.475339,261.595907 C301.976807,229.036961 314.647117,195.945689 337.568182,172.722347 C352.41908,157.755033 371.028754,146.817475 390.853185,139.810175 C413.995793,131.922299 438.651869,130.623821 462.879793,129.487032 C493.836174,128.40248 525.163454,128.477105 555.612028,134.825216 C590.018517,141.844954 623.11068,157.573445 648.207353,182.41864 C666.042869,199.963009 679.569483,221.447585 690.166244,244.001788 C692.033186,248.128558 694.248623,252.205578 694.905787,256.742786 C696.451614,264.337137 692.916871,272.670277 686.213306,276.617947" id="path58"></path>
                    <path d="M439.968187,524.49329 C455.197452,528.990698 469.891528,509.968751 461.89355,496.43424 C449.392509,478.897333 444.516057,457.487382 440.371447,436.73662 C437.24992,421.995668 435.629415,406.921391 435.738942,391.849601 C436.162116,384.834839 436.346321,376.133548 443.246537,372.123691 C452.379615,366.797944 463.710706,367.47952 473.767298,369.332711 C495.072836,374.011707 515.529538,383.89705 531.224294,399.195202 C534.465304,402.414033 538.796609,404.672687 543.419156,404.854275 C555.34269,405.510976 566.594125,393.93413 564.911388,381.969234 C564.378688,377.193225 561.463769,373.12118 558.001215,369.967025 C539.904328,352.833094 517.702658,339.930408 493.668896,333.234046 C472.609795,327.749099 449.345213,326.323758 428.933318,335.044949 C413.788687,341.405498 402.365494,355.270848 398.415045,371.123714 C392.694736,393.103304 396.473426,416.040582 400.329283,437.992809 C405.190799,463.676293 410.619865,490.185628 425.042611,512.468693 C428.420531,518.023291 433.471231,522.96845 439.968187,524.49329" id="path54"></path>
                    <path d="M405.573149,1031.92704 C409.264714,1033.38969 412.7895,1030.86488 416.339179,1030.16091 C435.322241,1025.10381 452.040081,1012.64888 462.783708,996.25125 C480.987633,968.639951 484.350617,932.695511 474.729645,901.395242 C464.986699,871.281513 445.831878,844.81944 439.053635,813.660959 C437.323602,803.131353 440.577059,792.362946 446.357111,783.56713 C452.831664,773.6594 461.561483,765.542673 470.184264,757.537883 C473.681668,754.346415 476.561737,750.057957 476.793237,745.197374 C477.841214,731.570824 462.661734,719.608415 449.650396,723.934185 C443.163396,725.921701 438.919215,731.523561 434.102506,735.921469 C418.910579,751.117634 404.985684,768.933141 399.815501,790.181404 C396.487366,803.293041 398.135253,817.04894 401.6227,829.941676 C408.522916,855.189846 422.726608,877.522662 431.822348,901.927568 C440.076719,921.19329 441.749499,943.660431 434.714863,963.548029 C431.090507,974.182111 423.448492,983.60229 413.068297,988.231536 C406.608679,991.65683 398.304523,991.400617 393.059661,997.029839 C386.500473,1003.766 386.851458,1014.84783 391.817523,1022.3999 C394.829522,1027.40476 400.131636,1030.27036 405.573149,1031.92704" id="path26"></path>
                    <path d="M213.405861,1028.52861 C217.087469,1030.01365 221.209677,1030.46638 225.085447,1029.51615 C243.702589,1025.51873 260.627037,1014.50406 272.077612,999.320333 C292.599035,972.064747 297.306217,934.923817 288.173139,902.501684 C278.761263,871.271065 258.702843,844.184629 251.668207,812.128159 C250.107444,802.317441 252.706226,792.255486 257.811689,783.830308 C263.932769,773.683777 272.615292,765.460087 281.210691,757.432911 C285.198478,753.957867 288.954765,749.569909 289.395363,744.075011 C290.819217,730.209662 275.311155,717.879102 262.103166,722.351635 C256.619336,724.068013 252.775925,728.528109 248.740842,732.341453 C231.388242,749.241558 215.305162,769.62417 211.309907,794.165889 C208.342715,815.429077 215.817949,836.361428 224.30631,855.52765 C230.975026,870.405414 238.631976,884.845377 244.364731,900.136067 C251.922111,917.473974 253.76416,937.324259 249.276032,955.699455 C246.264033,968.445428 238.559787,980.678975 226.354968,986.30571 C219.586682,990.121542 210.637808,989.646428 205.28342,995.87514 C196.429138,1005.82765 201.332971,1023.5337 213.405861,1028.52861" id="path30"></path>
                    <path d="M602.161105,1022.85038 C604.797227,1023.65634 607.612575,1023.83792 610.345777,1023.44739 C631.773289,1019.34052 650.975406,1005.84083 662.679885,987.502946 C680.712052,959.48867 683.885852,923.218368 673.612695,891.791236 C665.398152,867.493292 651.425961,845.648028 642.964981,821.447097 C639.599508,811.554292 636.18176,800.905285 639.171356,790.465229 C643.622145,773.052697 657.716309,760.744525 670.279582,748.901516 C675.651395,744.075758 677.934043,735.946593 674.956893,729.222869 C670.565846,717.248022 654.315986,710.60141 643.609699,718.633562 C633.503321,727.173165 624.342861,736.934132 616.35484,747.498564 C605.526579,761.963402 597.237358,779.301309 597.421563,797.701379 C597.63066,816.064137 604.087789,833.618456 611.553066,850.155386 C618.259121,864.995838 625.841393,879.448239 631.539299,894.726491 C638.379773,910.701245 640.122252,928.70829 636.923558,945.757646 C634.247609,959.317033 627.110913,973.01572 614.238973,979.348906 C607.12717,983.684626 597.446455,983.0528 591.798335,989.7815 C582.742423,1000.40563 588.93818,1019.0246 602.161105,1022.85038" id="path34"></path>
                    <path d="M444.907617,672.916215 C477.352573,673.478391 509.874696,672.306776 542.12549,668.627757 C550.135915,668.043193 558.484877,663.742298 561.524258,655.943972 C565.643976,645.742716 559.498004,633.205693 549.294546,629.549062 C545.391394,628.248097 541.246783,629.151061 537.281399,629.499312 C506.932396,632.805205 476.364339,633.94697 445.856023,633.451956 C413.704799,632.598742 381.610828,630.011737 349.64132,626.675994 C340.127386,625.407367 330.48401,624.765591 321.156769,622.469624 C316.168301,620.715933 310.48782,619.365218 305.501842,621.87511 C293.747577,627.601346 291.208537,645.28004 300.062818,654.578332 C304.197472,659.317028 310.52267,661.060768 316.501862,661.98612 C359.040749,668.127769 401.950535,671.712263 444.907617,672.916215" id="path38"></path>
                    <path d="M674.932996,662.618941 C703.27317,666.643723 732.098749,665.056696 760.369223,661.377676 C792.286457,656.969818 823.852706,648.375491 852.635967,633.729064 C871.55182,624.007897 889.282787,611.470874 903.249999,595.324483 C914.043411,582.94666 922.626364,568.019146 924.899054,551.544404 C927.004964,538.504905 924.187127,524.530105 916.355929,513.784086 C906.729978,500.428674 892.511351,491.010982 877.351785,484.956396 C857.121606,476.814794 835.370491,473.563626 813.84092,471.125872 C807.941385,407.92087 807.719841,344.208418 812.83775,280.936254 C815.904513,246.374867 820.158651,211.94283 824.773731,177.570493 C825.776901,171.329345 823.708329,164.65537 819.083292,160.27985 C812.999552,154.078501 802.684077,152.797436 795.268585,157.329669 C790.588785,160.093287 787.078935,164.81457 785.943834,170.13783 C780.748758,209.835914 775.603467,249.583748 772.586489,289.538045 C768.272609,348.927214 768.434411,408.699459 773.995408,468.004053 C739.705913,466.568763 705.27951,468.188129 671.286237,472.926825 C648.183457,476.255106 625.13544,480.677889 602.881496,487.881702 C581.3345,495.04074 560.185786,505.411146 544.247083,521.935638 C532.184151,534.547286 524.198619,552.05683 526.187534,569.738012 C527.785636,585.075964 537.453905,598.29705 548.939329,608.008268 C565.403265,621.714418 586.031725,629.184393 606.625336,634.144477 C613.597741,636.059856 621.538466,633.763889 626.161013,628.139642 C632.147673,621.169654 633.730839,609.960959 627.928385,602.401433 C624.625143,598.0284 619.211012,596.152822 614.028382,595.140407 C600.006406,591.725064 585.909752,586.842092 574.521408,577.717926 C569.659892,573.633444 564.21838,568.041533 565.545153,561.098908 C567.265228,554.454784 572.315928,549.42505 577.411434,545.136592 C590.73144,534.741311 606.600444,528.243949 622.686013,523.480378 C651.128246,514.821375 680.77279,510.980668 710.335188,508.435951 C740.387969,506.142472 770.634913,505.926059 800.645377,508.968277 C820.230839,511.139869 839.886001,514.040299 858.627605,520.301348 C865.408337,522.251551 871.601605,525.808682 877.389124,529.756352 C881.927037,533.171696 886.649154,538.067105 885.959631,544.208753 C885.904867,551.579229 881.670643,557.92734 877.722684,563.815263 C865.468079,579.959167 848.553588,592.045952 830.252582,600.466154 C810.851325,609.396295 790.113337,615.00313 769.250887,619.328901 C739.987199,625.162099 709.780084,627.22424 680.10318,623.545221 C672.115159,622.400969 663.071694,625.711837 659.116267,633.059925 C654.070546,641.552266 656.950614,653.360449 664.707135,659.218523 C667.63201,661.487127 671.358425,662.146315 674.932996,662.618941" id="path42"></path>
                    <path d="M957.718643,612.613634 C977.779553,623.993967 1000.69066,630.906742 1023.88554,630.513716 C1048.96479,630.27989 1074.02164,621.337312 1092.99225,604.790432 C1118.51459,582.848155 1133.08171,550.411097 1138.07516,517.57355 C1139.01361,513.513943 1138.52323,509.165785 1139.90974,505.20319 C1140.41506,495.897436 1141.11952,486.318056 1139.52391,477.119265 C1137.46031,455.930702 1131.89185,434.861539 1121.2702,416.307243 C1105.03776,388.618831 1079.73697,367.236242 1052.09628,351.460489 C1002.54516,323.287013 946.292961,311.028591 893.291733,291.24298 C881.246225,286.163496 866.95292,297.660742 867.443304,310.247515 C867.259099,319.279643 874.560085,326.707332 882.719865,329.463487 C919.237243,342.978098 957.173496,352.472903 993.180577,367.40788 C1020.74659,379.116563 1048.43707,392.618738 1069.94922,413.941626 C1082.14159,426.103036 1091.74016,441.1002 1096.30794,457.793843 C1102.82232,481.186335 1102.47134,506.40963 1095.55121,529.685209 C1091.16763,544.538099 1083.43351,558.587524 1072.1547,569.333543 C1061.14721,580.228813 1046.75682,587.952514 1031.31846,589.987293 C1012.68638,592.763348 993.690874,587.417701 977.520671,578.266172 C972.853317,575.413004 967.02597,574.363277 961.771151,576.069705 C951.709581,579.475099 945.177774,591.20617 948.087714,601.499464 C949.541439,606.37746 953.330086,610.210704 957.718643,612.613634" id="path46"></path>
                    <path d="M174.557295,610.798004 C177.409981,618.573943 185.552336,623.252939 193.552803,623.777803 C221.340362,625.785219 249.692982,624.235503 276.564496,616.511802 C300.879543,609.407489 323.937517,595.788402 339.410729,575.438128 C350.614868,560.791702 356.188311,541.428967 352.128335,523.203022 C348.847497,506.019341 337.640868,491.350527 323.95992,480.895545 C305.352735,466.56752 283.10128,457.940854 260.750255,451.33653 C239.509438,445.172494 217.648797,440.891498 195.541718,439.667646 C208.650138,382.907769 214.365469,324.590714 214.390361,266.383109 C214.465039,204.436785 208.236922,142.612349 198.247539,81.5043142 C297.451838,49.0946183 402.655243,36.5352082 506.800715,40.5376029 C550.965086,42.1470183 594.925338,47.253865 638.54954,54.18654 C643.473287,54.8905038 648.14562,57.5521336 653.266019,56.6019069 C664.22621,55.6143676 672.839034,44.4554225 670.959647,33.5825404 C669.615449,23.3016844 659.675851,15.6351956 649.422608,16.1923966 C601.031481,8.3368575 552.207224,2.6728098 503.166402,1.08329444 C489.816524,-0.364433162 476.339695,0.1703803 462.927587,0.0136675184 C453.18713,0.232567912 443.384442,-0.242545443 433.688791,1.0012068 C390.096949,2.41410934 346.726651,7.59309366 303.660042,14.2944307 C258.275935,21.702219 213.061099,32.1099378 170.532169,49.9055448 C164.326455,52.3980243 158.730608,57.3207956 157.097657,63.9947702 C155.352689,71.5642463 158.15559,79.1187974 159.071636,86.5862858 C177.131185,194.481792 182.739477,306.009056 160.617464,413.760287 C159.056701,422.628241 156.218949,431.257394 155.317839,440.249722 C125.49158,443.150152 95.3715882,446.682409 66.939312,456.572727 C47.4783125,463.580027 28.3458948,473.781283 15.0308672,489.999812 C6.05959038,500.735881 0.874471189,514.442031 0.0206565546,528.344693 C2.2161799,551.351622 15.4689761,571.866072 32.1519665,587.281137 C53.5247141,606.775709 81.3371657,620.377384 110.590896,621.292786 C116.077215,621.509198 122.016579,620.85001 126.380244,617.205816 C136.464218,609.250776 136.354691,591.241244 125.22274,584.271256 C119.430243,580.4803 112.24874,582.238965 105.79659,581.179288 C89.8130807,578.313683 75.1438981,570.405906 62.4362488,560.498176 C53.0617126,552.483437 43.6473483,543.05082 40.769769,530.623247 C38.6862621,522.665721 43.8937846,515.158432 49.7559813,510.325211 C63.0859445,499.576704 79.7539992,494.335532 96.0312409,489.912749 C125.001196,482.552223 154.939472,478.457791 184.860323,479.049817 C209.807642,479.408018 234.473674,484.432777 258.213704,491.900265 C272.126153,496.395186 285.600493,502.487084 297.61364,510.882412 C304.257463,515.563895 310.11966,521.827432 312.984793,529.528745 C315.364521,538.712612 310.622489,547.841753 305.452306,555.140091 C296.331673,566.458237 282.785145,573.271512 269.066858,577.326144 C244.557648,584.408069 218.70673,586.33091 193.346195,584.149369 C180.031168,582.935467 169.618612,598.783358 174.557295,610.798004" id="path50"></path>
                </g>
            </g>
        </g>
    </g>
</svg>